<svg width="120" height="120" viewBox="0 0 120 120" fill="none" xmlns="http://www.w3.org/2000/svg">
    <path d="M120 60.0009C120 52.727 114.396 46.1859 105.077 41.2391C108.244 30.8499 107.364 22.5118 102.43 17.5768C99.4258 14.5731 95.202 13.0491 89.8777 13.0491C86.477 13.0491 82.7244 13.6983 78.7617 14.9128C73.8145 5.59878 67.274 0 60.0013 0C52.732 0 46.1908 5.59878 41.2434 14.9128C37.2798 13.6983 33.5299 13.0491 30.1274 13.0491C24.8031 13.0491 20.5802 14.573 17.5753 17.5768C12.6383 22.5118 11.7584 30.849 14.9257 41.2391C5.60336 46.1859 0 52.7287 0 60.0009C0 67.2722 5.60424 73.8158 14.9257 78.7627C11.7584 89.1519 12.6383 97.49 17.5753 102.425C20.5793 105.429 24.8031 106.951 30.1274 106.951C33.5308 106.951 37.2807 106.302 41.2434 105.087C46.1906 114.401 52.7311 120 60.0013 120C67.2731 120 73.8145 114.401 78.7617 105.087C82.7279 106.302 86.4779 106.951 89.8777 106.951C95.202 106.951 99.4273 105.43 102.43 102.425C107.551 97.3041 108.195 88.7545 105.151 78.7229C114.426 73.7829 120 67.2549 120 60.0009ZM117.452 58.7613H96.86C99.8441 53.9552 102.278 49.1579 104.003 44.5124C104.115 44.2125 104.184 43.9324 104.291 43.6351C111.997 47.7851 116.838 53.0312 117.452 58.7612L117.452 58.7613ZM88.1432 58.7613C88.1259 56.7836 88.0662 54.8308 87.9651 52.9103C89.4917 54.8509 90.9595 56.8018 92.303 58.7613H88.1432ZM85.6648 58.7613H62.9902L79.0165 42.7388C81.2079 44.9689 83.2896 47.2493 85.2501 49.5615C85.493 52.5558 85.6365 55.6261 85.6642 58.7613H85.6648ZM80.7694 40.9867L83.7284 38.0278C84.1624 40.3799 84.5315 42.8063 84.8237 45.3018C83.5253 43.8513 82.1698 42.4137 80.7694 40.9867H80.7694ZM79.0223 39.2293C77.5968 37.8342 76.1523 36.4805 74.6897 35.1745C77.188 35.4692 79.6196 35.8383 81.9745 36.2749L79.0223 39.2293ZM77.2701 40.9815L61.2387 57.0117V34.3387C64.369 34.3681 67.4378 34.5098 70.4296 34.7553C72.7464 36.7132 75.032 38.7878 77.2701 40.9808V40.9815ZM61.2387 31.8611V27.7346C63.1967 29.0779 65.1522 30.5128 67.0981 32.0393C65.1721 31.9381 63.2185 31.8785 61.2387 31.8612V31.8611ZM58.7595 31.8611C56.7816 31.8784 54.8287 31.9381 52.9054 32.0392C54.8487 30.5127 56.8014 29.0777 58.7595 27.7372V31.8611ZM58.7595 34.3393V57.0058L42.7333 40.9806C44.9688 38.7876 47.2569 36.7104 49.5737 34.7525C52.5613 34.507 55.6292 34.3661 58.7595 34.3384V34.3393ZM40.9783 39.2293L38.0235 36.2747C40.3784 35.8382 42.8118 35.4691 45.311 35.1769C43.8483 36.4804 42.4037 37.8341 40.9783 39.2291V39.2293ZM39.2313 40.9867C37.8334 42.4121 36.4796 43.8565 35.1693 45.319C35.4641 42.8183 35.8332 40.3841 36.2697 38.0278L39.2313 40.9867ZM40.9835 42.7388L57.0071 58.7613H34.3325C34.3619 55.6261 34.5037 52.5558 34.7492 49.5642C36.7098 47.2493 38.7915 44.9716 40.9828 42.7388H40.9835ZM31.8548 58.7613H27.6959C29.0393 56.8009 30.5062 54.8507 32.0339 52.9103C31.9319 54.831 31.8722 56.7837 31.8549 58.7613H31.8548ZM31.8548 61.2404C31.8721 63.2182 31.9318 65.1709 32.0329 67.0915C30.5063 65.1509 29.0385 63.1999 27.695 61.2404H31.8548ZM34.3332 61.2404H57.0078L40.9842 77.2629C38.7928 75.0328 36.7111 72.7524 34.7506 70.4402C34.5051 67.446 34.3642 64.3756 34.3339 61.2404H34.3332ZM39.2313 79.0151L36.2722 81.9739C35.8357 79.6192 35.4666 77.1835 35.1718 74.6851C36.4797 76.1477 37.8334 77.5904 39.2313 79.0148L39.2313 79.0151ZM40.9783 80.7724C42.4038 82.1675 43.8484 83.5186 45.3136 84.8273C42.8127 84.5325 40.381 84.1634 38.0262 83.7295L40.9783 80.7724ZM42.7306 79.0202L58.7595 62.9951V85.6615C55.6292 85.6321 52.563 85.4904 49.571 85.2449C47.2542 83.287 44.9686 81.2124 42.7306 79.0194V79.0202ZM58.7595 88.1406V92.2621C56.8015 90.924 54.8486 89.4891 52.9054 87.9616C54.8262 88.0636 56.7799 88.1258 58.7595 88.1405V88.1406ZM61.2387 88.1406C63.2192 88.1233 65.1719 88.0637 67.0981 87.9625C65.1522 89.489 63.1968 90.924 61.2387 92.2672V88.1406ZM61.2387 85.6624V62.9893L77.2701 79.0196C75.0345 81.2126 72.7464 83.2898 70.4296 85.2477C67.437 85.4906 64.3688 85.6341 61.2387 85.6618V85.6624ZM79.0223 80.7724L81.9745 83.727C79.6196 84.1636 77.188 84.53 74.6897 84.8248C76.1524 83.5187 77.5969 82.1676 79.0223 80.7726V80.7724ZM80.7694 79.0151C82.1646 77.5897 83.5184 76.1479 84.829 74.6854C84.5342 77.1861 84.165 79.6203 83.7311 81.9741L80.7694 79.0151ZM79.0171 77.2629L62.9909 61.2404H85.6655C85.6361 64.3756 85.4943 67.446 85.2488 70.4402C83.2882 72.7551 81.2092 75.0301 79.0178 77.2629H79.0171ZM88.1432 61.2404H92.3021C90.9587 63.2009 89.4918 65.151 87.9641 67.0941C88.0661 65.1708 88.1284 63.2198 88.1431 61.2404H88.1432ZM87.6625 48.5604C87.3133 44.5877 86.7903 40.766 86.1056 37.1321C92.1058 38.503 97.5018 40.3294 102.058 42.5078C101.921 42.8916 101.824 43.2564 101.681 43.6479C99.9802 48.2179 97.571 52.9497 94.6067 57.691C92.5303 54.6528 90.2101 51.5961 87.6625 48.5603L87.6625 48.5604ZM71.4004 32.339C68.3843 29.8287 65.3206 27.526 62.2518 25.4463C67.474 22.172 72.6321 19.6245 77.488 17.9348C79.6742 22.4928 81.5008 27.8909 82.8736 33.8986C79.223 33.2097 75.3882 32.6867 71.4004 32.3392V32.339ZM48.5997 32.339C44.6118 32.6856 40.7747 33.2112 37.1265 33.8975C38.4993 27.89 40.3267 22.4917 42.5103 17.9337C47.3659 19.6261 52.526 22.1717 57.7489 25.4452C54.6793 27.5258 51.6156 29.8287 48.5994 32.3388L48.5997 32.339ZM32.3375 48.5629C29.8193 51.577 27.4965 54.6396 25.4072 57.716C22.4378 52.9669 20.0216 48.2283 18.3187 43.6512C18.1726 43.2596 18.0758 42.8957 17.9418 42.5111C22.4975 40.3302 27.8909 38.5062 33.891 37.1353C33.2073 40.7684 32.6825 44.59 32.3376 48.5628L32.3375 48.5629ZM32.3375 71.4395C32.6842 75.4149 33.2072 79.2339 33.8918 82.8703C27.8917 81.4977 22.4974 79.673 17.9426 77.4919C18.0766 77.1081 18.1734 76.7434 18.3195 76.3518C20.0225 71.7738 22.4386 67.0352 25.408 62.287C27.4965 65.3651 29.8168 68.4277 32.3374 71.4392L32.3375 71.4395ZM48.5997 87.6634C51.6158 90.1737 54.6795 92.4764 57.7483 94.5561C52.526 97.8278 47.3679 100.378 42.5097 102.066C40.326 97.508 38.4994 92.1099 37.1258 86.1049C40.7747 86.7929 44.6111 87.3159 48.5999 87.6634H48.5997ZM71.4026 87.6634C75.3878 87.3168 79.2225 86.7912 82.8731 86.1049C81.5004 92.1124 79.6729 97.5107 77.4875 102.066C72.6319 100.374 67.4763 97.828 62.254 94.5561C65.3201 92.4789 68.3838 90.1735 71.4026 87.6634ZM87.6623 71.442C90.1805 68.4278 92.5006 65.3652 94.5926 62.2889C97.5594 67.0379 99.9782 71.7766 101.679 76.3537C101.825 76.7426 101.922 77.1091 102.056 77.4938C97.4999 79.6747 92.1039 81.4986 86.1037 82.8722C86.7918 79.2364 87.3148 75.415 87.6623 71.4423L87.6623 71.442ZM102.846 40.1166C98.2673 37.9452 92.9215 36.1334 86.9922 34.7634L101.452 20.3045C104.911 24.6074 105.406 31.4899 102.846 40.1166H102.846ZM89.8753 15.5294C93.9771 15.5294 97.2413 16.5848 99.6982 18.5583L85.2428 33.0104C83.8718 27.0823 82.0607 21.736 79.8893 17.158C83.4465 16.1069 86.8172 15.5295 89.8755 15.5295L89.8753 15.5294ZM76.3699 15.723C71.5194 17.4483 66.4036 19.9783 61.2358 23.1828V2.55221C66.9706 3.16679 72.2205 8.01004 76.3699 15.7232V15.723ZM58.7592 2.55199V23.1801C53.594 19.9733 48.4782 17.4448 43.6303 15.7203C47.7771 8.00981 53.0244 3.16673 58.7592 2.55199ZM40.111 17.1578C37.9394 21.7332 36.1275 27.0812 34.7575 33.0075L20.3045 18.5555C22.7605 16.5855 26.0229 15.5265 30.1247 15.5265C33.1807 15.5291 36.5511 16.1065 40.111 17.1576V17.1578ZM18.5444 20.3025L33.0043 34.7614C27.0759 36.1324 21.7292 37.9433 17.1509 40.1146C14.5913 31.4904 15.0866 24.6055 18.5444 20.3025H18.5444ZM15.7091 43.635C15.8129 43.9324 15.8855 44.2125 15.997 44.5124C17.7225 49.1568 20.1559 53.9552 23.14 58.7613H2.54517C3.15979 53.0311 8.0007 47.7868 15.7091 43.6352L15.7091 43.635ZM2.54521 61.242H23.14C20.156 66.0481 17.7216 70.8454 15.997 75.4908C15.8855 75.7908 15.8138 76.0709 15.7092 76.3682C8.00079 72.2208 3.15981 66.9739 2.54526 61.2421L2.54521 61.242ZM17.152 79.8872C21.7303 82.0611 27.0761 83.8703 33.0054 85.2403L18.5456 99.6992C15.0868 95.3963 14.5916 88.5138 17.152 79.8872H17.152ZM30.1249 104.472C26.0231 104.472 22.7616 103.417 20.3047 101.446L34.7577 86.9938C36.1287 92.9219 37.9398 98.2681 40.1112 102.843C36.5513 103.897 33.1809 104.472 30.1249 104.472V104.472ZM43.6279 104.281C48.4784 102.556 53.5942 100.028 58.7568 96.824V117.449C53.0246 116.837 47.7773 111.994 43.6279 104.281ZM61.2386 117.452V96.8215C66.4038 100.028 71.5223 102.557 76.3728 104.284C72.2207 111.995 66.971 116.838 61.2386 117.452V117.452ZM79.8869 102.844C82.0584 98.2656 83.8703 92.9202 85.2404 86.9913L99.6934 101.446C97.2391 103.416 93.9749 104.472 89.8731 104.472C86.8171 104.472 83.4467 103.897 79.8869 102.844V102.844ZM101.456 99.7016L86.9962 85.2427C92.9246 83.8717 98.2713 82.0608 102.85 79.8895C105.407 88.5137 104.911 95.396 101.456 99.7016H101.456ZM104.383 76.3204C102.68 71.522 100.147 66.4342 96.9083 61.2417H117.45C116.843 66.952 112.037 72.179 104.383 76.3204Z" fill="white"/>
</svg>
