<svg width="85" height="95" viewBox="0 0 85 95" fill="none" xmlns="http://www.w3.org/2000/svg">
<path d="M1 1H26.2609V4.57692H1V1ZM1 9.94231H26.2609V8.15385H1V9.94231ZM1 17.0962H26.2609V15.3077H1V17.0962ZM29.8696 94H55.1304V90.4231H29.8696V94ZM1 13.5192H26.2609V11.7308H1V13.5192ZM1 22.4615H26.2609V18.8846H1V22.4615ZM29.8696 86.8462H55.1304V85.0577H29.8696V86.8462ZM29.8696 72.5385H55.1304V68.9615H29.8696V72.5385ZM29.8696 60.0192H55.1304V56.4423H29.8696V60.0192ZM29.8696 63.5962H55.1304V61.8077H29.8696V63.5962ZM29.8696 77.9038H55.1304V74.3269H29.8696V77.9038ZM29.8696 81.4808H55.1304V79.6923H29.8696V81.4808ZM1 72.5385H26.2609V68.9615H1V72.5385ZM1 83.2692H26.2609V81.4808H1V83.2692ZM1 79.6923H26.2609V77.9038H1V79.6923ZM29.8696 52.8654H55.1304V49.2885H29.8696V52.8654ZM1 27.8269H26.2609V26.0385H1V27.8269ZM1 67.1731H26.2609V65.3846H1V67.1731ZM1 94H26.2609V92.2115H1V94ZM1 90.4231H26.2609V88.6346H1V90.4231ZM1 36.7692H26.2609V34.9808H1V36.7692ZM1 33.1923H26.2609V29.6154H1V33.1923ZM1 61.8077H26.2609V58.2308H1V61.8077ZM1 51.0769H26.2609V47.5H1V51.0769ZM1 54.6538H26.2609V52.8654H1V54.6538ZM1 45.7115H26.2609V42.1346H1V45.7115ZM58.7391 49.2885H84V47.5H58.7391V49.2885ZM58.7391 36.7692H84V33.1923H58.7391V36.7692ZM58.7391 72.5385H84V68.9615H58.7391V72.5385ZM58.7391 54.6538H84V51.0769H58.7391V54.6538ZM58.7391 61.8077H84V58.2308H58.7391V61.8077ZM58.7391 67.1731H84V65.3846H58.7391V67.1731ZM58.7391 43.9231H84V42.1346H58.7391V43.9231ZM58.7391 6.36538H84V4.57692H58.7391V6.36538ZM58.7391 1V2.78846H84V1H58.7391ZM58.7391 13.5192H84V9.94231H58.7391V13.5192ZM58.7391 22.4615H84V20.6731H58.7391V22.4615ZM58.7391 18.8846H84V15.3077H58.7391V18.8846ZM58.7391 40.3462H84V38.5577H58.7391V40.3462ZM29.8696 17.0962H55.1304V13.5192H29.8696V17.0962ZM29.8696 9.94231H55.1304V6.36538H29.8696V9.94231ZM29.8696 20.6731H55.1304V18.8846H29.8696V20.6731ZM29.8696 27.8269H55.1304V24.25H29.8696V27.8269ZM29.8696 36.7692H55.1304V33.1923H29.8696V36.7692ZM58.7391 94H84V90.4231H58.7391V94ZM58.7391 86.8462H84V85.0577H58.7391V86.8462ZM58.7391 76.1154H84V74.3269H58.7391V76.1154ZM58.7391 81.4808H84V77.9038H58.7391V81.4808ZM29.8696 4.57692H55.1304V1H29.8696V4.57692ZM58.7391 26.0385H84V24.25H58.7391V26.0385ZM58.7391 31.4038H84V29.6154H58.7391V31.4038ZM29.8696 47.5H55.1304V45.7115H29.8696V47.5ZM29.8696 40.3462H55.1304V38.5577H29.8696V40.3462ZM29.8696 31.4038H55.1304V29.6154H29.8696V31.4038Z" fill="white" stroke="black"/>
</svg>
