<svg width="94" height="96" viewBox="0 0 94 96" fill="none" xmlns="http://www.w3.org/2000/svg">
    <path d="M92.7551 34.0833C91.9383 30.3789 89.0797 27.9089 84.5872 27.1889C85.3023 23.6905 84.6891 20.6033 82.6472 18.2368C78.5638 13.6057 70.3959 12.6798 61.5134 15.8695C59.2672 7.84325 53.3455 1.56631 47.322 1.05162C43.5446 0.640332 40.3798 2.6982 38.2354 6.81387C34.56 4.65259 30.5782 4.55006 27.3108 6.60787C22.3079 9.69507 19.6536 16.8979 20.3686 25.3358C12.3034 25.0271 4.64621 28.7315 2.19554 34.0827C0.664388 37.5811 1.58307 41.2856 4.74794 44.6815C1.99116 47.254 0.664461 50.4437 1.07248 53.8396C1.7875 60.2193 8.01465 65.4676 16.7949 67.5254C13.9362 75.3457 15.1612 83.8864 19.6536 87.8997C22.5123 90.4723 26.2895 90.6782 30.2712 88.6204C31.7005 91.8101 34.0486 93.9714 37.1117 94.6914C37.9285 94.8974 38.6428 95 39.4597 95C44.8708 95 50.8943 90.9869 55.4891 84.1953C61.9214 89.3403 70.4973 90.8834 75.6021 87.7971C78.8695 85.8418 80.2988 82.3434 79.5838 77.8158C83.0549 77.4045 85.8117 75.8605 87.3429 73.1854C90.5077 67.9377 88.7722 59.8082 82.9532 52.2966C89.8968 47.6655 94.0818 40.0515 92.7551 34.0833ZM82.0348 51.0615C81.4224 50.2382 80.8099 49.4149 80.4011 48.695L85.6079 48.1803C84.5873 49.2096 83.3624 50.2381 82.0348 51.0615ZM87.2416 46.4312L79.6863 47.2545C79.2782 46.4312 79.0738 45.6079 78.9712 44.682L89.6922 42.7267C88.9772 44.0646 88.1602 45.2993 87.2416 46.4312ZM90.509 41.0802L78.87 43.138C78.87 42.212 78.9719 41.2861 79.2781 40.2568L91.5295 36.861C91.4276 38.199 91.0196 39.6395 90.509 41.0802ZM91.2233 34.392C91.3252 34.7006 91.3251 34.9066 91.3251 35.2153L79.5845 38.5085C79.9925 37.3765 80.5032 36.2447 81.1156 34.9066L89.7941 31.4074C90.5092 32.2307 91.0196 33.2601 91.2233 34.392ZM88.4673 30.2756L82.3411 32.7454C82.443 32.6427 82.443 32.5394 82.5455 32.4367C83.2605 31.2022 83.7705 29.8642 84.1792 28.6296C85.9148 28.9382 87.344 29.453 88.4673 30.2756ZM83.0554 26.9831C82.2386 26.8805 81.4217 26.8805 80.503 26.7771C79.9924 26.7771 79.4818 26.6745 78.9719 26.6745L83.158 22.6614C83.3624 23.9986 83.3624 25.4398 83.0554 26.9831ZM81.4225 19.2656C81.9331 19.7802 82.2393 20.3975 82.5455 21.1174L76.8283 26.5712C75.7052 26.4685 74.4803 26.2625 73.3573 26.0565L80.0958 18.133C80.6057 18.3397 81.0137 18.7509 81.4225 19.2656ZM78.87 17.2078L71.7235 25.646C70.7023 25.44 69.6818 25.0287 68.6604 24.72L75.399 15.9731C76.7257 16.1784 77.8489 16.5905 78.87 17.2078ZM73.6628 15.5612L67.2306 23.896C66.3119 23.3813 65.5968 22.8666 64.8825 22.2494L69.3749 15.5612C70.9068 15.4586 72.3359 15.4585 73.6628 15.5612ZM67.333 15.8698L63.7593 21.1176C62.9424 20.0883 62.33 18.8538 61.8193 17.3104C63.7593 16.6931 65.5976 16.1785 67.333 15.8698ZM58.4508 12.0627C59.1659 13.4006 59.6758 14.8412 60.0845 16.3845C59.1658 16.6932 58.2472 17.0018 57.3278 17.2078L58.4508 12.0627ZM57.3277 10.1074L55.7966 17.5162C54.8779 17.6189 53.9592 17.6189 53.1423 17.4136L54.6734 6.60885C55.5921 7.63743 56.5108 8.7695 57.3277 10.1074ZM49.4662 3.10978C50.6911 3.62443 52.0186 4.34437 53.1416 5.3736L51.5079 17.1043C50.6911 16.7956 49.7724 16.3836 48.8536 15.8697L49.4662 3.10978ZM47.22 2.49249C47.4244 2.59585 47.7307 2.59585 47.9351 2.59585L47.4244 14.7378C46.5057 14.0171 45.4844 13.1945 44.464 12.1652L43.8516 2.90455C44.8721 2.5959 45.9951 2.38984 47.22 2.49249ZM42.4215 3.93306L42.8296 10.5187C42.7278 10.4161 42.7278 10.3127 42.6252 10.3127C41.604 9.18075 40.5835 8.3574 39.5621 7.5342C40.3797 5.99098 41.2984 4.75645 42.4215 3.93306ZM37.623 8.15217C37.3168 8.87282 37.0105 9.69539 36.6018 10.5187C36.3974 11.0334 36.1937 11.548 35.9893 12.0619L33.4369 6.7109C34.8669 6.81426 36.2963 7.32887 37.623 8.15217ZM28.1284 7.84352C29.2515 7.12287 30.4765 6.71158 31.8039 6.60894L35.275 13.8118C34.7644 14.8411 34.2537 15.9731 33.7438 17.0015L28.1284 7.84352ZM26.9028 8.76946L32.8244 18.5448C32.2119 19.4708 31.5994 20.2941 30.987 21.1174L24.5548 11.6505C25.1672 10.5186 25.9841 9.59285 26.9028 8.76946ZM23.738 13.1946L29.8641 22.3527C29.1491 23.0734 28.333 23.5873 27.5161 24.1019L22.4113 17.3103C22.7175 15.8697 23.1256 14.429 23.738 13.1946ZM22.0025 19.3682L26.0859 24.7192C24.861 25.2339 23.4316 25.4399 22.0025 25.3365C21.7981 23.2787 21.7981 21.3233 22.0025 19.3682ZM20.4713 26.8805C20.4713 27.9098 20.3695 28.8358 20.2669 29.7617L15.8772 27.1892C17.4083 26.8806 18.9395 26.7772 20.4713 26.8805ZM13.6309 27.6005L20.0631 31.3049C19.8587 32.2308 19.5525 33.0541 19.1444 33.8774L9.5472 29.1436C10.7721 28.4237 12.2017 27.9091 13.6309 27.6005ZM7.91295 29.967L18.3269 35.112C17.8163 35.8327 17.2038 36.5526 16.3869 37.2733L4.74798 32.9515C5.56484 31.8195 6.58625 30.8937 7.91295 29.967ZM3.62492 34.7008C3.72676 34.5982 3.72676 34.3921 3.82931 34.2895L15.0602 38.5086C14.1415 39.2293 13.0185 39.8465 11.7928 40.5664L3.11427 38.4052C2.91059 37.0672 3.115 35.8327 3.62492 34.7008ZM3.52308 40.0518L9.64921 41.595C9.54737 41.595 9.44482 41.6977 9.44482 41.6977C8.11735 42.315 6.99433 43.0356 5.97373 43.7555C4.74809 42.5209 3.9311 41.2863 3.52308 40.0518ZM5.87111 45.8141C6.27918 46.2254 6.78981 46.5347 7.19857 46.946C7.81104 47.4607 8.42351 47.9753 9.13858 48.5926L3.21701 49.4159C3.72764 48.0779 4.6461 46.8427 5.87111 45.8141ZM2.50194 53.7376C2.4001 52.8117 2.4001 51.8858 2.60378 50.9591L10.5673 49.9298C11.3841 50.7531 12.3028 51.473 13.1197 52.3996L2.70642 54.8688C2.60458 54.4576 2.60449 54.1489 2.50194 53.7376ZM3.21696 56.3101L14.3452 53.6349C15.0603 54.4582 15.6727 55.2815 16.1826 56.2074L5.15678 59.4998C4.33992 58.4705 3.6251 57.4413 3.21696 56.3101ZM6.38175 60.7345L16.8976 57.6473C17.3057 58.5732 17.6127 59.4991 17.8163 60.4258L9.85285 63.307C8.5261 62.5863 7.40289 61.6604 6.38175 60.7345ZM11.6909 64.2329L17.9188 61.9691C17.9188 63.307 17.7144 64.6443 17.2038 66.0848C15.3664 65.6735 13.5283 65.0562 11.6909 64.2329ZM18.2251 68.0408C19.1438 68.3494 20.0624 68.7614 20.8794 69.0701L17.102 72.4658C17.3064 71.0245 17.6126 69.4814 18.2251 68.0408ZM16.7958 74.8317L22.3086 69.8926C23.1255 70.4073 23.8397 70.9219 24.453 71.5392L17.0001 79.2568C16.7958 77.8162 16.6932 76.2723 16.7958 74.8317ZM19.0419 85.019C18.3269 83.8871 17.7144 82.5492 17.3063 81.0059L25.3716 72.6711C25.8822 73.3918 26.3928 74.2143 26.8009 75.1409L19.0419 85.019ZM23.5343 88.4147C22.4112 88.2087 21.4926 87.6941 20.5739 86.8715C20.3695 86.6655 20.1658 86.5629 20.0632 86.3569L27.5161 76.89C27.8223 78.022 28.1285 79.2565 28.4348 80.6972L23.5343 88.4147ZM25.2698 88.5174L28.7409 82.9611V83.2698C28.9453 84.7103 29.149 86.0483 29.5578 87.2829C28.1285 88.1062 26.5967 88.5174 25.2698 88.5174ZM34.0501 91.6046C33.0288 90.6787 32.2127 89.4433 31.4977 88.0027C32.2127 87.5914 32.927 87.1794 33.6421 86.6648C34.0501 86.3561 34.5608 86.0475 35.0714 85.8415L34.0501 91.6046ZM39.0524 93.5599C38.44 93.5599 37.8275 93.4572 37.3169 93.3539C36.6019 93.1479 35.9894 92.9426 35.3769 92.6332L36.8062 84.813C37.8274 84.1957 38.8479 83.681 39.8693 83.1664L39.0524 93.5599ZM44.1572 92.4279C42.9323 92.9426 41.8092 93.3539 40.5835 93.4572L41.5022 82.344C42.5235 81.9327 43.544 81.6233 44.5653 81.3147L44.1572 92.4279ZM45.7909 91.6047L46.0972 81.1086C47.1184 81.006 48.0372 80.9026 49.0576 81.1086L49.262 89.1348C48.0371 90.0615 46.914 90.8841 45.7909 91.6047ZM50.6914 87.5915L50.487 81.3146C51.7119 81.6232 52.9375 82.2405 54.1624 83.2699C53.1419 84.9165 51.9171 86.3569 50.6914 87.5915ZM55.0819 81.9318C47.629 76.1695 38.7461 81.6232 32.927 85.3275C32.212 85.7388 31.5995 86.1508 30.987 86.4595C30.6808 85.4302 30.4764 84.2982 30.272 83.0637C29.0471 72.259 25.6779 69.0693 18.735 66.5993C22.1041 57.3386 13.7321 50.341 8.11733 45.8133C7.70925 45.5047 7.40231 45.1961 6.99424 44.8874C7.91294 44.2701 8.8316 43.6528 9.95466 43.1382C19.7562 38.6104 21.798 34.3913 22.0016 26.9824C31.4962 27.3937 35.376 17.6183 38.0311 11.1361C38.3373 10.4154 38.6435 9.69551 38.8479 9.07826C39.6648 9.69555 40.5835 10.5188 41.4003 11.4448C48.2408 18.9564 52.9374 20.6029 60.3902 18.0304C63.0451 26.9833 73.4592 27.8065 80.401 28.3212C81.2179 28.4239 81.9322 28.4239 82.6471 28.5272C82.3409 29.5565 81.8303 30.5851 81.2178 31.717C76.215 40.6691 76.113 45.7115 80.8098 51.9884C73.1526 57.3394 75.603 67.5262 77.236 74.3178C77.4404 75.0385 77.5423 75.7584 77.7467 76.4791C76.6236 76.4791 75.5006 76.3765 74.2756 76.0678C64.2696 74.0085 59.4715 75.4488 55.0819 81.9318ZM56.3068 82.9611C56.9193 82.1378 57.4299 81.3145 58.0423 80.6973L60.1867 85.5336C58.7574 84.7103 57.4299 83.887 56.3068 82.9611ZM62.2284 86.3568L59.1653 79.3599C59.8803 78.7427 60.5946 78.228 61.4114 77.8167L66.5162 87.4896C65.0869 87.3855 63.6577 86.9741 62.2284 86.3568ZM68.2519 87.7974L62.739 77.3013C63.5559 76.9927 64.4746 76.8901 65.5977 76.7867L72.5399 87.488C71.315 87.7974 69.7838 87.9 68.2519 87.7974ZM74.786 86.4595C74.5816 86.5621 74.2754 86.7681 74.071 86.8708L67.4351 76.684C68.5582 76.684 69.8856 76.7866 71.3149 76.9926L77.2365 84.0929C76.624 85.1215 75.8072 85.8422 74.786 86.4595ZM77.8491 82.5491L73.561 77.404C73.6629 77.404 73.7654 77.404 73.8673 77.5067C75.2966 77.8153 76.624 77.918 77.9507 77.918C78.2577 79.6679 78.2579 81.2119 77.8491 82.5491ZM79.2784 76.3754C79.074 75.6547 78.8703 74.8322 78.6659 73.9056C78.5641 73.3909 78.3597 72.8763 78.2578 72.259L83.3626 75.0375C82.2395 75.7582 80.8102 76.1694 79.2784 76.3754ZM86.0169 72.465C85.7107 73.0823 85.2 73.5969 84.6894 74.1116L77.849 70.3044C77.6446 69.1725 77.4409 68.0406 77.2365 66.806L86.7311 70.8191C86.6293 71.333 86.3231 71.9503 86.0169 72.465ZM87.2418 69.2752L77.1341 65.0561C77.0323 63.9242 77.0323 62.8949 77.1341 61.8664L87.3437 65.5708C87.4463 66.9088 87.4462 68.1433 87.2418 69.2752ZM87.0374 63.8215L77.2359 60.3231C77.4402 59.2938 77.6439 58.3678 78.0527 57.5446L85.608 59.8084C86.323 61.1456 86.7312 62.4836 87.0374 63.8215ZM78.8703 56.104C79.5853 54.972 80.504 54.0461 81.729 53.1202C82.9539 54.6634 83.9751 56.2074 84.7921 57.854L78.8703 56.104Z" fill="white" stroke="black" stroke-width="0.5"/>
</svg>

