<svg width="107" height="107" viewBox="0 0 107 107" fill="none" xmlns="http://www.w3.org/2000/svg">
    <path d="M58.907 63.4389L58.9149 44.0738C58.9159 42.5043 58.2993 41.0259 57.1795 39.9099C56.06 38.7948 54.5768 38.1826 53.0018 38.186C49.7407 38.193 47.0867 40.8453 47.0845 44.0974L47.0757 63.4629C47.0757 64.2113 47.2153 64.9388 47.4829 65.6158C47.7767 66.3591 48.2245 67.0427 48.8106 67.6254C49.93 68.7405 51.4132 69.3527 52.9877 69.3495C56.25 69.3431 58.9045 66.6916 58.907 63.4389ZM53.0018 39.5708C54.9135 39.5667 56.5517 40.7518 57.213 42.4249C57.4153 42.9367 57.5266 43.4937 57.5259 44.0757L57.5217 53.0659L48.4697 53.0843L48.4737 44.0937C48.4752 41.6054 50.5065 39.5766 53.0018 39.5708ZM52.9894 67.965C51.7861 67.9673 50.651 67.4993 49.7935 66.6451C48.9363 65.7916 48.4646 64.6602 48.4656 63.4609L48.4699 54.4708L57.5219 54.4524L57.5176 63.4425C57.5171 65.9305 55.4855 67.9599 52.9894 67.965Z" fill="white"/>
    <path d="M31.7845 0.125993L31.7876 0.126011C32.1797 0.130206 32.5505 0.36429 32.7106 0.751096L43.6359 27.2268L43.6359 27.2268C43.8499 27.7449 43.6069 28.3373 43.0921 28.5513C42.5769 28.7655 41.9842 28.5203 41.7706 28.003L30.8419 1.52741C30.8419 1.5274 30.8419 1.52738 30.8419 1.52736C30.6292 1.0103 30.8772 0.417213 31.3931 0.202756L31.3934 0.202638C31.5218 0.148899 31.6531 0.125252 31.7845 0.125993Z" fill="white" stroke="black" stroke-width="0.25"/>
    <path d="M74.2889 0.74848C74.4483 0.361536 74.8215 0.128503 75.2157 0.125987V0.125993C75.3476 0.125252 75.4808 0.149619 75.6096 0.202786C76.1249 0.417067 76.3695 1.00736 76.1559 1.52493L76.1559 1.52493C74.9625 4.41625 73.4 8.20171 71.8312 12.0026C68.6115 19.8033 65.365 27.6689 65.2273 28.003C65.0136 28.5206 64.4256 28.7653 63.9108 28.5513C63.3959 28.3369 63.1485 27.7438 63.362 27.2266L63.362 27.2266L74.2889 0.748558L74.2889 0.74848Z" fill="white" stroke="black" stroke-width="0.25"/>
    <path d="M52.4492 12.9259C52.4492 12.3692 52.915 11.9099 53.4988 11.9099C54.0843 11.9099 54.556 12.371 54.556 12.9259V25.2585C54.556 25.813 54.0839 26.272 53.4988 26.272C52.9147 26.272 52.4492 25.8141 52.4492 25.2585V12.9259Z" fill="white" stroke="black" stroke-width="0.25"/>
    <path d="M24.0002 24.4579C24.2044 24.263 24.4699 24.1653 24.7384 24.1653L24.7384 24.1653C25.0074 24.1653 25.2753 24.2625 25.4791 24.4578L34.4513 33.0562L34.5378 32.9659L34.4513 33.0562C34.8575 33.4454 34.8575 34.0718 34.4513 34.4611L34.4512 34.4612C34.0426 34.8536 33.3745 34.8555 32.9656 34.4636L23.9952 25.8644L23.9952 25.8644C23.5905 25.4766 23.5933 24.8478 24.0002 24.4579Z" fill="white" stroke="black" stroke-width="0.25"/>
    <path d="M81.1349 24.4561C81.3297 24.262 81.5847 24.1653 81.8393 24.1653L81.8393 24.1653C82.0939 24.1653 82.3463 24.2611 82.5411 24.4559L82.6287 24.3683L82.5411 24.4559C82.9313 24.8462 82.9342 25.4779 82.5452 25.867L73.9474 34.4658L74.0329 34.5513L73.9474 34.4658C73.5589 34.8543 72.9248 34.8533 72.5348 34.4633C72.1462 34.0739 72.1474 33.4446 72.5373 33.0547L81.1349 24.4561Z" fill="white" stroke="black" stroke-width="0.25"/>
    <path d="M1.12911 30.7644L1.12912 30.7645C1.26007 30.7637 1.39462 30.7894 1.52459 30.8434L1.52488 30.8435L27.9999 41.768C28.5178 41.9818 28.7646 42.5723 28.5507 43.0868C28.3364 43.6021 27.7411 43.8491 27.2236 43.6355L27.1759 43.751L27.2236 43.6355L0.746492 32.7085C0.230728 32.4953 -0.0113504 31.903 0.203134 31.3872L0.203174 31.3871C0.36328 31.0011 0.734299 30.7676 1.12911 30.7644Z" fill="white" stroke="black" stroke-width="0.25"/>
    <path d="M79.7731 43.6347L79.7731 43.6347C79.2549 43.8486 78.6626 43.6057 78.4486 43.0911L78.3332 43.139L78.4486 43.0911C78.2344 42.5759 78.4797 41.9809 78.9968 41.7674C78.9968 41.7674 78.9968 41.7674 78.9968 41.7674L105.472 30.8428C105.472 30.8428 105.472 30.8428 105.472 30.8428C105.589 30.7946 105.71 30.7686 105.827 30.7649L105.867 30.7652C106.262 30.7689 106.636 31.0056 106.796 31.392L106.796 31.3921C107.01 31.9068 106.766 32.4947 106.248 32.7083L79.7731 43.6347Z" fill="white" stroke="black" stroke-width="0.25"/>
    <path d="M11.9062 53.5027C11.9062 52.9164 12.365 52.4468 12.9199 52.4468H25.2546C25.8095 52.4468 26.2683 52.9172 26.2683 53.5027C26.2683 54.0876 25.8102 54.5536 25.2546 54.5536H12.9199C12.3643 54.5536 11.9062 54.0876 11.9062 53.5027Z" fill="white" stroke="black" stroke-width="0.25"/>
    <path d="M80.7305 53.5027C80.7305 52.9164 81.1893 52.4468 81.7444 52.4468H94.0811C94.6358 52.4468 95.0925 52.9168 95.0925 53.5027C95.0925 54.0879 94.6365 54.5536 94.0811 54.5536H81.7444C81.1886 54.5536 80.7305 54.0876 80.7305 53.5027Z" fill="white" stroke="black" stroke-width="0.25"/>
    <path d="M78.4486 63.9111C78.6067 63.5299 78.9729 63.2965 79.3623 63.2886L79.3779 63.2884C79.5079 63.2869 79.6424 63.3131 79.7731 63.3667C79.7731 63.3667 79.7732 63.3667 79.7732 63.3667L106.246 74.292C106.246 74.292 106.246 74.292 106.246 74.292C106.764 74.5057 107.011 75.0962 106.797 75.6107C106.583 76.1261 105.987 76.373 105.47 76.1594L105.422 76.275L105.47 76.1594L78.9968 65.2324C78.9968 65.2324 78.9968 65.2324 78.9968 65.2324C78.4796 65.0189 78.2344 64.4262 78.4486 63.9111L78.4486 63.9111Z" fill="white" stroke="black" stroke-width="0.25"/>
    <path d="M27.2212 63.365L27.2215 63.3649C27.3484 63.3121 27.4801 63.2878 27.6092 63.2883L27.6092 63.2884L27.6182 63.2885C28.0151 63.2922 28.3897 63.5277 28.5507 63.9138C28.7645 64.4282 28.518 65.0164 28 65.2302L1.52733 76.1587C1.00921 76.3726 0.416844 76.1296 0.202864 75.6149L0.0874406 75.6629L0.202863 75.6149C-0.0115462 75.0992 0.231968 74.5044 0.748599 74.2911L27.2212 63.365Z" fill="white" stroke="black" stroke-width="0.25"/>
    <path d="M33.7081 72.2439H33.7077C33.4392 72.2431 33.1711 72.3453 32.9668 72.5488L33.7081 72.2439ZM33.7081 72.2439H33.7081C33.9773 72.2439 34.2454 72.3448 34.4494 72.5488L34.4495 72.5489C34.858 72.9568 34.8582 73.6195 34.4494 74.0284L25.4774 82.9999L25.4773 82.9999C25.0686 83.4087 24.4112 83.4087 24.0025 82.9999L24.0024 82.9998C23.5931 82.5911 23.5894 81.9276 23.9973 81.5204L23.9973 81.5203L32.9666 72.549L33.7081 72.2439ZM33.7081 72.1189H33.7081L34.5378 72.4604C34.309 72.2316 34.0086 72.1189 33.7081 72.1189Z" fill="white" stroke="black" stroke-width="0.25"/>
    <path d="M72.5369 72.547C72.7318 72.3444 72.9869 72.2447 73.2421 72.2439C73.4966 72.2432 73.7515 72.3433 73.9465 72.5469L73.9466 72.5469L82.544 81.5184C82.544 81.5184 82.544 81.5184 82.544 81.5184C82.9347 81.9262 82.9318 82.5919 82.5391 83.0018C82.1499 83.408 81.5261 83.408 81.1369 83.0018L81.1369 83.0018L72.5394 74.0303L72.5394 74.0302C72.1471 73.6215 72.1452 72.956 72.5369 72.547ZM74.0368 72.4604C73.8176 72.2316 73.5298 72.1181 73.242 72.1189L74.0368 72.4604Z" fill="white" stroke="black" stroke-width="0.25"/>
    <path d="M74.1726 106.296C74.4124 106.877 75.0808 107.153 75.6598 106.912C76.2388 106.671 76.5109 106.005 76.271 105.424L65.3443 78.9522C65.1648 78.5163 64.7487 78.2515 64.307 78.2482L74.1726 106.296ZM65.2287 78.9998L65.2287 78.9999L76.1555 105.472C76.3694 105.99 76.1264 106.582 75.6118 106.796C75.0965 107.011 74.5015 106.765 74.2881 106.248L63.3614 79.7741C63.3614 79.7741 63.3614 79.7741 63.3614 79.774C63.1488 79.2571 63.3967 78.6641 63.9124 78.4496C64.0215 78.4046 64.1337 78.3792 64.2442 78.3728L64.3061 78.3732C64.6987 78.3762 65.0688 78.6115 65.2287 78.9998Z" fill="white" stroke="black" stroke-width="0.25"/>
    <path d="M41.769 78.996C41.9239 78.6198 42.28 78.3878 42.6622 78.3719L42.697 78.3715C42.8271 78.3701 42.9602 78.3963 43.0903 78.45C43.6053 78.6642 43.85 79.2568 43.6363 79.7744L32.7096 106.246C32.4957 106.764 31.9076 107.011 31.3933 106.797C30.8776 106.582 30.6288 105.987 30.8422 105.47L30.7266 105.422L30.8422 105.47L41.7689 78.996L41.769 78.996Z" fill="white" stroke="black" stroke-width="0.25"/>
    <path d="M52.4492 81.7445C52.4492 81.1876 52.9151 80.7283 53.4988 80.7283C54.0843 80.7283 54.556 81.1894 54.556 81.7445V94.0792C54.556 94.6335 54.0842 95.0904 53.4988 95.0904C52.9144 95.0904 52.4492 94.6345 52.4492 94.0792V81.7445Z" fill="white" stroke="black" stroke-width="0.25"/>
</svg>
