<svg width="104" height="49" viewBox="0 0 104 49" fill="none" xmlns="http://www.w3.org/2000/svg">
<path d="M33.6471 9.19052C28.5871 9.19052 24.4707 13.3118 24.4707 18.3775C24.4707 23.4431 28.587 27.5641 33.6471 27.5641C38.7071 27.5641 42.8236 23.4432 42.8236 18.3775C42.8235 13.3118 38.7071 9.19052 33.6471 9.19052ZM33.6471 24.502C30.2738 24.502 27.5294 21.7547 27.5294 18.3776C27.5294 15.0005 30.2737 12.253 33.6471 12.253C37.0202 12.253 39.7648 15.0004 39.7648 18.3776C39.7648 21.7546 37.0202 24.502 33.6471 24.502ZM48.9413 0H52V27.1048H48.9413V0ZM104 9.65003V27.1047H100.941V12.7121H94.8236V27.1047H91.7646V12.7121H85.647V27.1047H82.5883V9.65003H104ZM18.9096 6.468L14.4886 10.8936C12.9884 9.82303 11.1554 9.19072 9.1764 9.19072C4.11671 9.19042 0 13.3116 0 18.3774C0 22.9212 3.31278 26.7029 7.64697 27.434V30.7564C3.31278 31.4879 0 35.2695 0 39.8134C0 44.8787 4.11661 49 9.1764 49C14.2364 49 18.3528 44.8788 18.3528 39.8134C18.3528 35.2695 15.04 31.4879 10.7057 30.7564V27.434C15.0399 26.7029 18.3528 22.9213 18.3528 18.3774C18.3528 16.3962 17.7212 14.561 16.6518 13.0592L21.0725 8.63334L18.9096 6.468ZM15.294 39.8134C15.294 43.1902 12.5497 45.9378 9.1764 45.9378C5.80337 45.9378 3.05867 43.1901 3.05867 39.8134C3.05867 36.4363 5.80337 33.6888 9.1764 33.6888C12.5497 33.6889 15.294 36.4363 15.294 39.8134ZM9.1764 24.5019C5.80337 24.5019 3.05867 21.7546 3.05867 18.3775C3.05867 15.0004 5.80337 12.2529 9.1764 12.2529C12.5497 12.2529 15.294 15.0003 15.294 18.3775C15.294 21.7546 12.5497 24.5019 9.1764 24.5019ZM67.4471 9.19062C64.8455 9.19062 62.487 10.1438 60.8062 11.8745C59.1714 13.5585 58.2706 15.8677 58.2706 18.3776C58.2706 20.9014 59.148 23.208 60.7414 24.8722C62.4271 26.6334 64.7457 27.5642 67.447 27.5642C70.3512 27.5642 73.363 26.1492 74.9412 24.0425L72.494 22.2052C71.4811 23.5577 69.4056 24.5021 67.447 24.5021C64.2682 24.5021 61.9956 22.6448 61.4536 19.7554H76.3174V18.2243C76.3174 15.7868 75.4566 13.5307 73.8932 11.872C72.2634 10.1428 69.9742 9.19062 67.4471 9.19062ZM61.5271 16.6932C62.186 14.0113 64.4372 12.253 67.4471 12.253C70.3464 12.253 72.5052 14.0158 73.0967 16.6932H61.5271Z" fill="white"/>
</svg>
