<svg width="41" height="41" viewBox="0 0 41 41" fill="none" xmlns="http://www.w3.org/2000/svg">
    <path d="M21.0121 0.969238C24.969 0.973145 28.8356 2.15087 32.1234 4.35313C35.4107 6.55539 37.971 9.68343 39.4805 13.3416C40.9897 16.9995 41.3798 21.023 40.6016 24.9029C39.8234 28.7829 37.9119 32.3443 35.1089 35.1371C32.3059 37.9301 28.7373 39.8288 24.8547 40.5927C20.9722 41.3569 16.9504 40.9523 13.2976 39.43C9.64527 37.9078 6.52643 35.3364 4.33623 32.0408C2.14568 28.7454 0.981899 24.8745 0.992256 20.9174C1.00593 15.6186 3.12196 10.5418 6.87557 6.80182C10.6289 3.06193 15.7135 0.963881 21.0121 0.969238ZM19.4839 16.1691H15.9158C15.656 16.1713 15.3982 16.2076 15.1479 16.2771C14.8427 16.3407 14.6094 16.5884 14.564 16.897C14.4794 17.2324 14.6482 17.5801 14.9641 17.7209C15.3483 17.9006 15.7612 18.0117 16.1839 18.0491C17.2958 18.101 17.7439 18.589 17.5759 19.7329C17.264 21.873 16.8441 23.9968 16.4838 26.133C16.24 27.573 16.0358 29.0169 15.8 30.4569C15.4839 32.3968 17.2919 34.2169 18.728 34.4568C19.5787 34.576 20.437 34.6309 21.296 34.6209C23.1364 34.6187 24.8948 33.8575 26.1559 32.5168C26.385 32.3059 26.5569 32.0403 26.6559 31.7448C26.7042 31.4867 26.6434 31.2202 26.4879 31.0087C26.2999 30.8912 26.0686 30.8661 25.8599 30.9409C25.5317 31.0489 25.2399 31.2729 24.9199 31.413C24.546 31.5877 24.1542 31.7213 23.7519 31.8128C23.4274 31.8924 23.0842 31.8257 22.813 31.6301C22.542 31.4345 22.3704 31.1298 22.3439 30.7969C22.2764 30.4247 22.2644 30.0445 22.3079 29.6689C22.4438 28.7409 22.6361 27.821 22.804 26.9008C23.2599 24.3916 23.7225 21.881 24.1919 19.3687C24.32 18.6807 24.5359 18.0046 24.3919 17.2809C24.3693 16.9595 24.2187 16.6601 23.9734 16.4508C23.7282 16.2416 23.409 16.14 23.0878 16.1687L19.4839 16.1691ZM21.6599 7.27346C20.6931 7.23105 19.7492 7.57619 19.0377 8.23245C18.3265 8.88897 17.9066 9.80193 17.8711 10.7693C17.836 11.7363 18.1881 12.6778 18.8496 13.3842C19.5112 14.0906 20.4272 14.5039 21.3948 14.5323C22.3622 14.5605 23.3008 14.2014 24.0025 13.5348C24.7043 12.868 25.1108 11.9489 25.132 10.9813C25.1587 10.0312 24.8089 9.10879 24.1585 8.41573C23.5081 7.72238 22.6099 7.31474 21.6599 7.28124V7.27346Z" fill="white"/>
</svg>