<svg width="366" height="1099" viewBox="0 0 366 1099" fill="none" xmlns="http://www.w3.org/2000/svg">
    <path d="M34.8807 0.00012207L3.85855 340.469L21.1488 74.4602L20.0542 74.3871L2.05375 351.327L11.1327 47.6018L10.0344 47.5688L1.11657 345.903L1.11657 0.0513916H0.0183054L0.0183054 381.915L0 381.907L0.0183054 382.632L0.0073233 382.76L0.0183054 382.782L0.0183054 1097.96H1.11657L1.11657 425.026L13.8491 916.168L14.9473 916.139L1.97687 415.741L27.6798 850.312L28.7781 850.246L2.97629 414.069L27.6798 676.293L28.7744 676.191L3.21424 404.872L32.4646 608.003L33.5518 607.85L5.82444 415.306L64.9072 747.09L65.9871 746.9L7.34736 417.597L80.162 764.185L81.2383 763.961L3.97204 396.184L76.5121 643.052L77.5664 642.741L8.13078 406.442L89.1311 643.074L90.1671 642.719L5.20575 394.504L105.012 620.348L106.015 619.905L9.12288 400.652L364.538 1098.21L365.515 1097.71L16.6936 413.088L120.49 601.683L121.453 601.156L17.477 412.235L129.855 601.701L130.799 601.142L9.63906 396.868L144.923 594.411L145.831 593.789L13.9223 401.18L160.397 594.433L161.272 593.771L10.7044 395.115L170.995 579.008L171.823 578.287L7.74273 390.047L188.934 557.906L189.68 557.101L14.7203 395.013L193.839 542.477L194.535 541.628L20.1457 398.058L193.857 528.665L194.516 527.787L5.23504 385.472L223.24 488.873L223.708 487.881L14.3067 388.561L206.191 462.864L206.59 461.839L13.904 387.229L364.871 492.562L365.186 491.512L12.3188 385.607L259.973 436.053L260.192 434.977L25.1282 387.093L259.998 424.265L260.17 423.178L24.9525 385.955L260.02 412.473L260.145 411.383L16.8107 383.931L235.654 393.772L235.701 392.674L12.0955 382.621L210.485 372.627L210.43 371.532L8.72384 381.692L166.628 352.286L166.427 351.206L5.45835 381.183L210.672 294.51L210.244 293.5L13.1498 376.744L171.662 294.492L171.156 293.519L4.72618 379.876L179.082 233.43L178.376 232.592L8.32481 375.419L130.719 248.845L129.931 248.08L4.52483 377.768L161.287 145.484L160.379 144.873L14.0248 361.728L123.064 183.688L122.13 183.117L8.19302 369.154L115.844 161.696L114.871 161.191L5.74024 371.492L115.866 103.097L114.849 102.68L7.70612 363.81L85.6935 139.665L84.6575 139.306L3.4522 372.696L58.497 136.357L57.428 136.108L5.18379 360.41L41.1738 163.168L40.0938 162.97L3.62426 362.851L21.1452 224.134L20.0579 223.995L3.97936 351.272L35.9753 0.102539L34.8807 0.00012207Z"
          fill="#6C6C6C"/>
</svg>