<svg width="77" height="55" viewBox="0 0 77 55" fill="none" xmlns="http://www.w3.org/2000/svg">
    <path d="M3.8889 0.177734V9.07255H7.42108V11.5816H0.939453V0.177734H3.8889Z" fill="white"/>
    <path d="M16.4026 0.177734V11.5816H13.4531V0.177734H16.4026Z" fill="white"/>
    <path d="M29.7841 2.68679H26.2366V4.59429H29.4723V7.10335H26.2366V11.5816H23.2871V0.177734H29.7841V2.68679Z" fill="white"/>
    <path d="M42.5076 2.68705H39.0061V4.59455H42.3134V7.10361H39.0061V9.06767H42.5076V11.5767H36.0566V0.172852H42.5076V2.68191V2.68705Z" fill="white"/>
    <path d="M0.433594 27.4025C0.433594 26.5542 0.586947 25.7675 0.89876 25.0374C1.21057 24.3074 1.63996 23.6698 2.19202 23.1248C2.74408 22.5798 3.40349 22.1531 4.17024 21.8446C4.937 21.5361 5.78042 21.3818 6.70564 21.3818C7.63086 21.3818 8.45895 21.5361 9.23082 21.8446C10.0027 22.1531 10.6672 22.5798 11.2244 23.1248C11.7816 23.6698 12.2161 24.3074 12.5228 25.0374C12.8346 25.7675 12.9879 26.5593 12.9879 27.4025C12.9879 28.2458 12.8346 29.0375 12.5228 29.7676C12.2109 30.4977 11.7764 31.1353 11.2244 31.6803C10.6672 32.2253 10.0027 32.652 9.23082 32.9605C8.45895 33.269 7.61552 33.4233 6.70564 33.4233C5.79576 33.4233 4.937 33.269 4.17024 32.9605C3.40349 32.652 2.74408 32.2253 2.19202 31.6803C1.63996 31.1353 1.21057 30.4977 0.89876 29.7676C0.586947 29.0375 0.433594 28.2458 0.433594 27.4025ZM3.51595 27.4025C3.51595 27.855 3.60285 28.2766 3.77153 28.6571C3.94022 29.0427 4.17025 29.3717 4.46161 29.6545C4.75298 29.9373 5.09035 30.1584 5.47884 30.3126C5.86221 30.4669 6.27115 30.5491 6.70564 30.5491C7.14013 30.5491 7.54396 30.472 7.93244 30.3126C8.31582 30.1584 8.65831 29.9373 8.95478 29.6545C9.25126 29.3717 9.48129 29.0375 9.65508 28.6571C9.82377 28.2715 9.91067 27.855 9.91067 27.4025C9.91067 26.9501 9.82377 26.5285 9.65508 26.148C9.4864 25.7624 9.25126 25.4333 8.95478 25.1506C8.65831 24.8678 8.31582 24.6467 7.93244 24.4925C7.54907 24.3382 7.14013 24.2559 6.70564 24.2559C6.27115 24.2559 5.86732 24.3331 5.47884 24.4925C5.09546 24.6467 4.75298 24.8678 4.46161 25.1506C4.17025 25.4333 3.94022 25.7675 3.77153 26.148C3.60285 26.5336 3.51595 26.9501 3.51595 27.4025Z" fill="white"/>
    <path d="M19.3613 33.1041V21.7002H22.3108L27.7547 28.6721V21.7002H30.6888V33.1041H27.7547L22.3108 26.1322V33.1041H19.3613Z" fill="white"/>
    <path d="M6.45953 48.2458H12.3073C12.3073 48.8525 12.2818 49.4026 12.2306 49.8962C12.1795 50.3898 12.0824 50.8474 11.9291 51.2742C11.7195 51.8706 11.4332 52.395 11.0703 52.8526C10.7074 53.3102 10.2882 53.6958 9.79747 54.0043C9.31186 54.3128 8.77514 54.5442 8.19752 54.7087C7.61479 54.8681 7.00648 54.9503 6.36241 54.9503C5.47808 54.9503 4.67556 54.8012 3.9497 54.5133C3.22384 54.2202 2.60021 53.8089 2.07882 53.2793C1.55743 52.7498 1.1536 52.1122 0.862232 51.3718C0.570865 50.6315 0.427734 49.814 0.427734 48.9142C0.427734 48.0144 0.57086 47.2124 0.857115 46.472C1.14337 45.7316 1.5472 45.0992 2.0737 44.5748C2.60021 44.0503 3.23406 43.6442 3.97525 43.3511C4.71645 43.058 5.54455 42.9141 6.45443 42.9141C7.63523 42.9141 8.6729 43.1711 9.56745 43.6853C10.462 44.1994 11.1674 44.9964 11.6888 46.0761L8.8927 47.2381C8.63201 46.6108 8.29464 46.1635 7.87548 45.891C7.46143 45.6185 6.98605 45.4848 6.45443 45.4848C6.01482 45.4848 5.611 45.5671 5.25318 45.7368C4.89536 45.9064 4.58355 46.1429 4.32796 46.4463C4.07238 46.7548 3.87302 47.125 3.72479 47.5568C3.57655 47.9887 3.50497 48.4772 3.50497 49.0068C3.50497 49.4901 3.56632 49.9374 3.69412 50.3538C3.8168 50.7651 4.00592 51.1251 4.25639 51.4284C4.50686 51.7318 4.81868 51.9631 5.18672 52.1328C5.55988 52.2973 5.98926 52.3847 6.47998 52.3847C6.77135 52.3847 7.05249 52.3539 7.32341 52.287C7.59433 52.2202 7.83459 52.1174 8.05439 51.9683C8.26908 51.8243 8.44798 51.6341 8.586 51.4027C8.72401 51.1713 8.82113 50.8885 8.87225 50.5543H6.44931V48.2561L6.45953 48.2458Z" fill="white"/>
    <path d="M18.1758 48.925C18.1758 48.0767 18.3291 47.29 18.6409 46.5599C18.9528 45.8298 19.3821 45.1923 19.9342 44.6473C20.4863 44.1023 21.1457 43.6755 21.9124 43.367C22.6792 43.0585 23.5226 42.9043 24.4478 42.9043C25.373 42.9043 26.2011 43.0585 26.973 43.367C27.7449 43.6755 28.4094 44.1023 28.9666 44.6473C29.5237 45.1923 29.9582 45.8298 30.2649 46.5599C30.5768 47.29 30.7301 48.0818 30.7301 48.925C30.7301 49.7682 30.5768 50.56 30.2649 51.2901C29.9531 52.0202 29.5186 52.6577 28.9666 53.2027C28.4094 53.7477 27.7449 54.1745 26.973 54.483C26.2011 54.7915 25.3577 54.9457 24.4478 54.9457C23.5379 54.9457 22.6792 54.7915 21.9124 54.483C21.1457 54.1745 20.4863 53.7477 19.9342 53.2027C19.3821 52.6577 18.9528 52.0202 18.6409 51.2901C18.3291 50.56 18.1758 49.7682 18.1758 48.925ZM21.2581 48.925C21.2581 49.3775 21.345 49.7991 21.5137 50.1795C21.6824 50.5651 21.9124 50.8942 22.2038 51.177C22.4952 51.4598 22.8325 51.6809 23.221 51.8351C23.6044 51.9893 24.0133 52.0716 24.4478 52.0716C24.8823 52.0716 25.2862 51.9945 25.6746 51.8351C26.058 51.6809 26.4005 51.4598 26.697 51.177C26.9935 50.8942 27.2235 50.56 27.3973 50.1795C27.566 49.7939 27.6529 49.3775 27.6529 48.925C27.6529 48.4725 27.566 48.0509 27.3973 47.6705C27.2286 47.2849 26.9935 46.9558 26.697 46.673C26.4005 46.3902 26.058 46.1691 25.6746 46.0149C25.2913 45.8607 24.8823 45.7784 24.4478 45.7784C24.0133 45.7784 23.6095 45.8555 23.221 46.0149C22.8376 46.1691 22.4952 46.3902 22.2038 46.673C21.9124 46.9558 21.6824 47.29 21.5137 47.6705C21.345 48.0561 21.2581 48.4725 21.2581 48.925Z" fill="white"/>
    <path d="M40.053 43.2227V52.1175H43.5851V54.6265H37.1035V43.2227H40.053Z" fill="white"/>
    <path d="M56.6717 45.732H53.1701V47.6395H56.4774V50.1485H53.1701V52.1126H56.6717V54.6216H50.2207V43.2178H56.6717V45.7268V45.732Z" fill="white"/>
    <path d="M62.791 54.6265L64.713 43.2227H67.6318L69.9014 49.3051L72.1556 43.2227H75.0744L77.0015 54.6265H74.0674L73.0911 48.0608L70.4126 54.6265H69.242L66.7015 48.0608L65.7251 54.6265H62.791Z" fill="white"/>
</svg>