<svg width="98" height="120" viewBox="0 0 98 120" fill="none" xmlns="http://www.w3.org/2000/svg">
    <path d="M69.9264 0.00204468C69.8505 0.00204468 69.7917 0.0556183 69.7209 0.0675201C69.6919 0.0726242 69.6698 0.0896301 69.6399 0.0947342C69.4856 0.136398 69.322 0.1483 69.1975 0.24099L27.8031 15.9396L1.11969 18.5969C1.11457 18.5969 1.11202 18.5994 1.10775 18.602C1.0711 18.6045 1.03956 18.6266 1.0029 18.6334C0.858831 18.6649 0.724151 18.7091 0.604799 18.7873C0.58775 18.7967 0.563027 18.7967 0.545978 18.8094C0.213522 19.0407 -0.082293 19.482 0.0208658 19.8162L0.155557 60.5186L0.0208658 100.263V100.266C0.0208658 100.295 0.0404727 100.319 0.0404727 100.351C0.0498499 100.48 0.082245 100.604 0.133392 100.724C0.152999 100.77 0.162376 100.819 0.187097 100.863C0.274901 101.016 0.389986 101.16 0.544279 101.267L27.3979 119.806H27.4004H27.403C27.5573 119.911 27.7303 119.969 27.9042 119.996C27.9554 120.004 28.0065 119.996 28.0585 119.999C28.1881 120.002 28.3126 119.99 28.437 119.953C28.466 119.945 28.4984 119.953 28.5274 119.944L70.2077 104.135L96.902 101.481C96.9071 101.481 96.9114 101.476 96.9191 101.476C96.9438 101.473 96.9651 101.459 96.9898 101.454C97.1467 101.426 97.2882 101.371 97.4178 101.29C97.4374 101.278 97.4621 101.281 97.4766 101.268C97.5039 101.249 97.5158 101.217 97.5405 101.198C97.6411 101.115 97.7263 101.017 97.7946 100.908C97.8235 100.863 97.8508 100.827 97.873 100.781C97.9463 100.623 98 100.454 98 100.272V100.269L97.8653 61.0078L98 19.8201V19.815C98 19.6203 97.9514 19.4298 97.861 19.2546C97.7732 19.0812 97.6411 18.9281 97.4749 18.8133C97.4723 18.8133 97.4698 18.8133 97.4698 18.8108L70.8213 0.41069C70.6005 0.158142 70.2851 0 69.9279 0L69.9264 0.00204468ZM94.1677 19.4873L71.1485 28.1299L71.1485 3.5949L94.1677 19.4873ZM68.7043 29.0492L49.0087 36.4437L29.3132 29.0492V17.9755L68.7021 3.03523L68.7021 29.0483L68.7043 29.0492ZM95.4182 61.0464L95.4105 63.6042L71.1473 72.7146V47.3611L95.4061 56.4698L95.4182 61.0464ZM68.7043 73.6319L49.0087 81.0264L29.3132 73.6319V46.4455L49.0087 39.0511L68.7043 46.4455V73.6319ZM68.7043 76.2382V88.4235L52.4799 82.331L68.7043 76.2382ZM45.541 82.3307L29.3143 88.4233V76.238L45.541 82.3307ZM2.59708 60.5233L2.61158 56.4689L26.8704 47.3602V72.7137L2.60721 63.6026L2.59708 60.5233ZM29.3154 43.8349L29.3154 31.6522L45.5397 37.7448L29.3154 43.8349ZM52.4786 37.7448L68.7053 31.6522V43.8375L52.4786 37.7448ZM26.8712 18.4798V28.1293L6.55758 20.5028L26.8712 18.4798ZM26.8712 30.733L26.8712 44.7539L2.57526 53.8744L2.46785 21.5703L26.8712 30.733ZM2.57744 66.1957L26.8712 75.3161V89.3371L2.46833 98.4993L2.57744 66.1957ZM3.85275 100.585L26.8698 91.9425L26.8707 116.478L3.85275 100.585ZM29.314 91.0259L49.0095 83.6314L68.7051 91.0259V102.097L29.314 117.035V91.0259ZM71.1493 101.59V91.9425L91.4603 99.569L71.1493 101.59ZM71.1493 89.3388V75.3205L95.4386 66.2L95.5486 98.5041L71.1493 89.3388ZM95.4452 53.8805L71.1493 44.7574V30.7391L95.5521 21.5742L95.4452 53.8805Z" fill="white"/>
</svg>