<svg width="100" height="100" viewBox="0 0 100 100" fill="none" xmlns="http://www.w3.org/2000/svg">
    <path d="M98.6261 48.4014C98.1908 48.324 97.7429 48.4222 97.3806 48.6752C97.0175 48.9282 96.7705 49.3143 96.6931 49.7495C95.3018 57.4519 91.8332 64.6285 86.6617 70.504C83.313 74.3444 79.2188 77.4632 74.6274 79.6729C70.0363 81.8819 65.044 83.1347 59.9534 83.3549C56.2476 83.5104 52.544 83.0097 49.0122 81.8766C43.3428 80.126 38.3864 76.5988 34.8754 71.8157C29.9189 65.0879 28.9591 56.8587 32.3755 50.3356C33.6939 47.6937 35.8024 45.5288 38.4079 44.1405C40.3766 43.1086 42.6419 42.7887 44.8197 43.2358C45.0794 43.3511 45.3598 43.4471 45.6411 43.5409C46.5689 43.8236 47.385 44.3883 47.9766 45.1568C48.5681 45.9246 48.9058 46.8583 48.9423 47.8271C47.9565 47.6649 46.9506 47.6738 45.9678 47.8538C43.6413 48.5026 41.7136 50.1335 40.6883 52.3199C40.5358 52.6443 40.4063 52.9784 40.2999 53.3199C40.2434 53.5111 40.1742 53.6986 40.0916 53.8801C40.041 53.979 40.0016 54.0832 39.9733 54.1903C39.2739 57.1834 39.6593 60.3283 41.061 63.0646C42.7603 66.3143 45.4366 68.9495 48.7124 70.599C56.3786 74.6105 65.9494 73.5489 73.7108 67.8307C78.346 64.3548 81.9723 59.708 84.2169 54.3675C86.4615 49.0264 87.2436 43.1846 86.4838 37.4418C85.3782 27.1375 80.4217 17.6301 72.606 10.825C66.2559 5.29573 58.5398 1.57052 50.2607 0.0357905C49.8195 -0.0572074 49.3597 0.0328145 48.9862 0.285027C48.612 0.537234 48.3568 0.930059 48.2771 1.37423C48.1983 1.81764 48.3024 2.27446 48.5658 2.64049C48.8292 3.00651 49.2295 3.24981 49.6759 3.31529C57.3666 4.74746 64.5344 8.21298 70.4327 13.3508C77.6071 19.601 82.1575 28.3288 83.1738 37.7888C83.868 42.9506 83.1753 48.2039 81.1665 53.0092C79.1577 57.8153 75.9057 61.9988 71.7444 65.1311C65.018 70.0874 56.7886 71.0458 50.2657 67.6309C47.6238 66.3125 45.458 64.2041 44.0697 61.5986C43.0393 59.6277 42.7194 57.3624 43.1643 55.1839C43.2796 54.9243 43.3778 54.6438 43.4723 54.3626H43.473C43.5281 54.1714 43.598 53.9846 43.6814 53.8038C44.2498 52.5271 45.3293 51.5488 46.6558 51.1092C47.0412 51.0482 47.4326 51.0251 47.8224 51.0407C47.6528 52.0347 47.661 53.0503 47.8455 54.0405C48.4958 56.3662 50.1267 58.2931 52.3125 59.3183C52.6354 59.4716 52.9702 59.6011 53.3124 59.7052C53.5036 59.7625 53.6904 59.8332 53.8719 59.915C53.9709 59.9656 54.075 60.0058 54.1821 60.0355C57.1753 60.7349 60.3203 60.3487 63.0551 58.9456C66.3064 57.2471 68.9424 54.5701 70.5897 51.2929C74.6013 43.6387 73.5412 34.0593 67.8249 26.295C64.3474 21.6592 59.699 18.0338 54.3562 15.7899C49.0143 13.5461 43.1708 12.7649 37.4264 13.5275C27.1272 14.6338 17.6257 19.5887 10.8223 27.4014C5.29217 33.7513 1.5661 41.4672 0.0313405 49.7462C-0.0549629 50.1844 0.0387814 50.6382 0.290259 51.0072C0.542472 51.3755 0.931591 51.6277 1.37056 51.7073C1.81026 51.7862 2.26262 51.6857 2.62793 51.4283C2.9925 51.1709 3.23875 50.7781 3.31091 50.3376C4.74163 42.6455 8.20567 35.4766 13.3438 29.5756C19.5956 22.4036 28.3235 17.8548 37.7842 16.8401C42.9462 16.1459 48.2004 16.8386 53.0066 18.8466C57.812 20.8553 61.9963 24.108 65.1293 28.2692C70.0872 34.997 71.0441 43.2262 67.6291 49.7493C66.31 52.3912 64.2015 54.5561 61.5959 55.9436C59.6265 56.9748 57.3619 57.294 55.1841 56.8491C54.9245 56.7338 54.6425 56.6341 54.3509 56.5411V56.5403C54.1611 56.4853 53.9759 56.4161 53.7966 56.3342C52.5199 55.7644 51.5415 54.6848 51.0996 53.3591C51.0364 52.9655 51.0133 52.566 51.0311 52.1679C52.7007 52.4343 54.4119 52.1404 55.8962 51.331C57.3805 50.5215 58.5545 49.2426 59.2345 47.6943C59.3885 47.3714 59.5194 47.0374 59.6258 46.6944C59.6823 46.5039 59.7523 46.3172 59.8341 46.1364C59.8832 46.0375 59.9227 45.934 59.9524 45.8284C60.6503 42.8345 60.2649 39.6904 58.864 36.9541C57.1632 33.7045 54.4871 31.0692 51.2111 29.4197C43.5567 25.4103 33.9771 26.4698 26.2012 32.1992H26.2019C20.8756 36.1446 16.9406 41.6785 14.9622 48.0044C13.7287 51.9022 13.1751 55.983 13.3254 60.0682C13.5628 65.6168 14.9265 71.0583 17.3334 76.063C19.7395 81.0677 23.1395 85.531 27.3246 89.181C33.6524 94.7481 41.381 98.48 49.6756 99.9732C49.773 99.9911 49.872 100 49.9702 100C50.8325 99.997 51.5497 99.3378 51.6256 98.48C51.7015 97.6215 51.11 96.847 50.2619 96.6937C42.5606 95.304 35.3856 91.8377 29.5107 86.6677C25.6702 83.3198 22.5498 79.2257 20.3402 74.6344C18.1312 70.0434 16.8784 65.0505 16.6582 59.96C16.5116 56.255 17.0116 52.5521 18.1365 49.019C19.8871 43.3498 23.4145 38.3934 28.1976 34.8817C34.9256 29.9254 43.1535 28.9685 49.6782 32.3819C52.3194 33.7018 54.4852 35.8102 55.875 38.415C56.9047 40.3858 57.2239 42.6512 56.7782 44.8297C56.6629 45.0878 56.5669 45.3683 56.4732 45.6481C56.4054 45.8675 56.3229 46.0825 56.2247 46.2909C55.8817 47.081 55.3162 47.7543 54.5975 48.2282C53.8781 48.7014 53.0359 48.9551 52.175 48.9573C52.4361 47.2901 52.1385 45.5833 51.3276 44.1029C50.5174 42.6223 49.2391 41.4528 47.6931 40.775C47.3702 40.621 47.0354 40.4915 46.6932 40.3866C46.5027 40.3293 46.3152 40.2586 46.1337 40.1768C46.0355 40.1277 45.9328 40.0875 45.8272 40.0585C42.8333 39.3621 39.6898 39.7482 36.9542 41.1484C33.7037 42.847 31.0685 45.5231 29.4196 48.7988C25.408 56.4552 26.4697 66.034 32.1977 73.8063V73.807C36.1386 79.1325 41.6682 83.0704 47.9899 85.0547C51.5053 86.1714 55.174 86.7294 58.8628 86.7093C59.2593 86.7093 59.6574 86.7093 60.0576 86.6907C65.6064 86.4533 71.0495 85.0896 76.0551 82.6828C81.0607 80.2752 85.5241 76.8753 89.1741 72.6888C94.7429 66.3611 98.4772 58.6326 99.9733 50.3364C100.052 49.9004 99.9547 49.4518 99.7025 49.088C99.4495 48.7241 99.0626 48.4764 98.6267 48.3983L98.6261 48.4014Z" fill="white"/>
</svg>
