<svg width="1329" height="551" viewBox="0 0 1329 551" fill="none" xmlns="http://www.w3.org/2000/svg">
<path d="M415.621 288.613V378.498L357.5 431.767V235.344L415.621 288.613Z" fill="#363636"/>
<path d="M357.246 432.341V234.765L415.875 288.501V378.61L357.246 432.346V432.341ZM357.754 235.918V431.188L415.367 378.386V288.724L357.754 235.923V235.918Z" fill="#DDDDDD"/>
<path d="M490.661 235.344V431.767L476.559 378.498V288.612L490.661 235.344Z" fill="#8B8B8B"/>
<path d="M490.915 433.718L476.305 378.498V288.582L476.315 288.552L490.915 233.398V433.723V433.718ZM476.813 378.462L490.407 429.811V237.294L476.813 288.643V378.462Z" fill="#DDDDDD"/>
<path d="M490.664 235.344L476.561 288.612H415.621L357.5 235.344H490.664Z" fill="#616161"/>
<path d="M476.753 288.867H415.519L415.448 288.8L356.844 235.09H490.993L476.758 288.867H476.753ZM415.717 288.359H476.362L490.332 235.598H358.149L415.717 288.359Z" fill="#DDDDDD"/>
<path d="M490.664 431.767H357.5L415.621 378.498H476.561L490.664 431.767Z" fill="#616161"/>
<path d="M490.993 432.021H356.844L357.326 431.579L415.519 378.244H476.753L490.987 432.021H490.993ZM358.154 431.513H490.337L476.367 378.752H415.722L358.154 431.513Z" fill="#DDDDDD"/>
<path d="M476.561 288.613H415.621V378.498H476.561V288.613Z" fill="#DDDDDD"/>
<path d="M476.815 378.752H415.367V288.359H476.815V378.752ZM415.875 378.244H476.307V288.867H415.875V378.244Z" fill="#DDDDDD"/>
<path d="M476.561 288.613H415.621V378.498H476.561V288.613Z" fill="#DDDDDD"/>
<path d="M476.815 378.752H415.367V288.359H476.815V378.752ZM415.875 378.244H476.307V288.867H415.875V378.244Z" fill="#DDDDDD"/>
<path d="M921.94 290.065V323.054L885.828 461.906V265.482L921.94 290.065Z" fill="#363636"/>
<path d="M885.574 463.887V265L922.194 289.927L922.184 323.115L885.574 463.887ZM886.082 265.96V459.919L921.686 323.018V290.197L886.082 265.96Z" fill="#DDDDDD"/>
<path d="M1018.99 265.482V461.906L982.879 323.054V290.065L1018.99 265.482Z" fill="#8B8B8B"/>
<path d="M1019.24 463.887L982.625 323.049V289.927L1019.24 265V463.887ZM983.133 323.018L1018.74 459.919V265.96L983.133 290.197V323.018Z" fill="#DDDDDD"/>
<path d="M1018.99 265.482L982.88 290.064H921.94L885.828 265.482H1018.99Z" fill="#616161"/>
<path d="M982.956 290.318H921.858L885 265.228H1019.81L982.956 290.318ZM922.016 289.81H982.798L1018.16 265.736H886.65L922.016 289.81Z" fill="#DDDDDD"/>
<path d="M1018.99 461.906H885.824L921.936 323.054H982.876L1018.99 461.906Z" fill="#616161"/>
<path d="M1019.32 462.16H885.5L885.581 461.84L921.744 322.8H983.075L983.126 322.988L1019.32 462.16ZM886.155 461.652H1018.66L982.684 323.308H922.135L886.155 461.652Z" fill="#DDDDDD"/>
<path d="M982.877 290.064H921.938V323.054H982.877V290.064Z" fill="#DDDDDD"/>
<path d="M983.131 323.308H921.684V289.811H983.131V323.308ZM922.191 322.8H982.623V290.319H922.191V322.8Z" fill="#DDDDDD"/>
<path d="M982.877 290.064H921.938V323.054H982.877V290.064Z" fill="#DDDDDD"/>
<path d="M983.131 323.308H921.684V289.811H983.131V323.308ZM922.191 322.8H982.623V290.319H922.191V322.8Z" fill="#DDDDDD"/>
<path d="M1108.42 449.251V507.376L1070.48 520.833V393.818L1108.42 449.251Z" fill="#363636"/>
<path d="M1070.22 521.194V393L1108.68 449.174V507.559L1070.22 521.194ZM1070.73 394.641V520.477L1108.17 507.198V449.332L1070.73 394.641Z" fill="#DDDDDD"/>
<path d="M1210.41 393.818V520.833L1172.46 507.376V449.251L1210.41 393.818Z" fill="#8B8B8B"/>
<path d="M1210.66 521.194L1172.21 507.559V449.174L1172.26 449.108L1210.66 393V521.194ZM1172.72 507.198L1210.16 520.477V394.641L1172.72 449.332V507.198Z" fill="#DDDDDD"/>
<path d="M1210.41 393.817L1172.47 449.25H1108.43L1070.48 393.817H1210.41Z" fill="#616161"/>
<path d="M1172.6 449.504H1108.29L1108.21 449.393L1069.99 393.563H1210.89L1210.62 393.96L1172.59 449.504H1172.6ZM1108.56 448.996H1172.33L1209.93 394.071H1070.96L1108.56 448.996H1108.56Z" fill="#DDDDDD"/>
<path d="M1210.41 520.833H1070.48L1108.42 507.376H1172.46L1210.41 520.833Z" fill="#616161"/>
<path d="M1211.88 521.087H1069L1108.42 507.122H1172.51L1172.55 507.137L1211.89 521.087H1211.88ZM1071.95 520.579H1208.93L1172.42 507.63H1108.46L1071.95 520.579Z" fill="#DDDDDD"/>
<path d="M1172.46 449.25H1108.42V507.376H1172.46V449.25Z" fill="#DDDDDD"/>
<path d="M1172.72 507.63H1108.17V448.997H1172.72V507.63ZM1108.68 507.122H1172.21V449.505H1108.68V507.122Z" fill="#DDDDDD"/>
<path d="M1172.46 449.25H1108.42V507.376H1172.46V449.25Z" fill="#DDDDDD"/>
<path d="M1172.72 507.63H1108.17V448.997H1172.72V507.63ZM1108.68 507.122H1172.21V449.505H1108.68V507.122Z" fill="#DDDDDD"/>
<path d="M211.785 170.447V241.221L173.84 308.719V154.064L211.785 170.447Z" fill="#363636"/>
<path d="M173.586 309.69V153.678L212.039 170.279V241.287L212.008 241.343L173.586 309.684V309.69ZM174.094 154.45V307.749L211.531 241.155V170.614L174.094 154.45Z" fill="#DDDDDD"/>
<path d="M313.773 154.064V308.719L275.828 241.221V170.447L313.773 154.064Z" fill="#8B8B8B"/>
<path d="M314.027 309.69L275.574 241.287V170.279L314.027 153.678V309.69ZM276.082 241.155L313.519 307.749V154.45L276.082 170.614V241.155Z" fill="#DDDDDD"/>
<path d="M313.773 308.719H173.84L211.785 241.221H275.828L313.773 308.719Z" fill="#616161"/>
<path d="M314.204 308.973H173.402L211.632 240.967H275.969L276.04 241.094L314.199 308.968L314.204 308.973ZM174.271 308.465H313.335L275.675 241.475H211.932L174.271 308.465Z" fill="#DDDDDD"/>
<path d="M313.777 154.064L275.832 170.447H211.789L173.844 154.064H313.777Z" fill="#616161"/>
<path d="M275.881 170.701L211.686 170.68L172.613 153.81H315.004L275.881 170.701ZM211.838 170.193H275.774L312.541 154.318H175.071L211.838 170.193Z" fill="#DDDDDD"/>
<path d="M275.828 170.447H211.785V241.221H275.828V170.447Z" fill="#DDDDDD"/>
<path d="M276.082 241.475H211.531V170.193H276.082V241.475ZM212.039 240.967H275.574V170.701H212.039V240.967Z" fill="#DDDDDD"/>
<path d="M275.828 170.447H211.785V241.221H275.828V170.447Z" fill="#DDDDDD"/>
<path d="M276.082 241.475H211.531V170.193H276.082V241.475ZM212.039 240.967H275.574V170.701H212.039V240.967Z" fill="#DDDDDD"/>
<path d="M106.968 357.02V490.228L31.6055 454.104V393.144L106.968 357.02Z" fill="#8B8B8B"/>
<path d="M107.222 490.629L106.856 490.456L31.3516 454.261V392.981L31.4938 392.91L107.222 356.614V490.629ZM31.8594 453.941L106.714 489.821V357.421L31.8594 393.301V453.941Z" fill="#DDDDDD"/>
<path d="M106.971 357.02L31.609 393.144H13.7079L0.367188 357.02H106.971Z" fill="#616161"/>
<path d="M31.6633 393.398H13.5286L13.4677 393.23L0 356.766H108.087L31.6633 393.398ZM13.879 392.89H31.5465L105.847 357.274H0.731277L13.8841 392.89H13.879Z" fill="#DDDDDD"/>
<path d="M106.971 490.228H0.367188L13.7079 454.104H31.609L106.971 490.228Z" fill="#616161"/>
<path d="M108.087 490.482H0L13.5286 453.85L31.7141 453.875L108.082 490.482H108.087ZM0.731277 489.974H105.852L31.5516 454.358H13.8841L0.731277 489.974Z" fill="#DDDDDD"/>
<path d="M31.6081 393.144H13.707V454.104H31.6081V393.144Z" fill="#DDDDDD"/>
<path d="M31.862 454.358H13.4531V392.89H31.862V454.358ZM13.961 453.85H31.3542V393.398H13.961V453.85Z" fill="#DDDDDD"/>
<path d="M13.7079 393.144V454.104L0.367188 490.228V357.02L13.7079 393.144Z" fill="#363636"/>
<path d="M0.113281 491.645V355.597L13.9618 393.144V454.149L13.9466 454.19L0.113281 491.645ZM0.621113 358.437V488.805L13.454 454.058V393.189L0.621113 358.437Z" fill="#DDDDDD"/>
<path d="M31.6081 393.144H13.707V454.104H31.6081V393.144Z" fill="#DDDDDD"/>
<path d="M31.862 454.358H13.4531V392.89H31.862V454.358ZM13.961 453.85H31.3542V393.398H13.961V453.85Z" fill="#DDDDDD"/>
<path d="M547.781 231.071V264.386L525.746 289.217V90.843L547.781 231.071Z" fill="#363636"/>
<path d="M525.492 289.883V90.843L525.995 90.8024L548.035 231.051V264.483L525.492 289.888V289.883ZM526 94.0891V288.547L547.527 264.29V231.092L526 94.0942V94.0891Z" fill="#DDDDDD"/>
<path d="M607 90.843V289.217L584.965 264.386V231.071L607 90.843Z" fill="#8B8B8B"/>
<path d="M607.254 289.883L584.711 264.477V231.066L606.746 90.8024L607.249 90.843V289.883H607.254ZM585.219 264.284L606.746 288.541V94.0942L585.214 231.112V264.29L585.219 264.284Z" fill="#DDDDDD"/>
<path d="M607.003 90.843L584.968 231.071H547.785L525.75 90.843H607.003Z" fill="#616161"/>
<path d="M585.185 231.325H547.565L525.449 90.589H607.296L585.18 231.325H585.185ZM548.002 230.817H584.749L606.702 91.097H526.043L547.997 230.817H548.002Z" fill="#DDDDDD"/>
<path d="M606.999 289.217H525.746L547.781 264.386H584.964L606.999 289.217Z" fill="#616161"/>
<path d="M607.564 289.471H525.184L547.67 264.132H585.082L585.158 264.218L607.569 289.471H607.564ZM526.311 288.963H606.437L584.854 264.64H547.899L526.316 288.963H526.311Z" fill="#DDDDDD"/>
<path d="M584.965 231.071H547.781V264.386H584.965V231.071Z" fill="#DDDDDD"/>
<path d="M585.219 264.64H547.527V230.817H585.219V264.64ZM548.035 264.132H584.711V231.325H548.035V264.132Z" fill="#DDDDDD"/>
<path d="M584.965 231.071H547.781V264.386H584.965V231.071Z" fill="#DDDDDD"/>
<path d="M585.219 264.64H547.527V230.817H585.219V264.64ZM548.035 264.132H584.711V231.325H548.035V264.132Z" fill="#DDDDDD"/>
<path d="M1159.41 88.4019V236.149L1145.3 323.708V0.843018L1159.41 88.4019Z" fill="#363636"/>
<path d="M1145.55 323.748L1145.05 323.708V0.843008L1145.55 0.802368L1159.66 88.3816V236.149L1145.55 323.748ZM1145.55 4.01293V320.533L1159.15 236.103V88.4222L1145.55 4.01293Z" fill="#DDDDDD"/>
<path d="M1278.47 0.843018V323.708L1220.35 236.149V88.4019L1278.47 0.843018Z" fill="#8B8B8B"/>
<path d="M1278.72 324.546L1278.26 323.845L1220.09 236.22V88.3257L1220.13 88.2597L1278.72 -0.000244141V324.546ZM1220.6 236.067L1278.22 322.859V1.68124L1220.6 88.4731V236.073V236.067Z" fill="#DDDDDD"/>
<path d="M1278.47 0.843018L1220.35 88.4019H1159.41L1145.3 0.843018H1278.47Z" fill="#616161"/>
<path d="M1220.48 88.6559H1159.19L1159.16 88.4425L1145 0.588989H1278.94L1220.48 88.6559H1220.48ZM1159.63 88.1479H1220.21L1278 1.09699H1145.6L1159.63 88.1479Z" fill="#DDDDDD"/>
<path d="M1278.47 323.708H1145.3L1159.41 236.149H1220.35L1278.47 323.708Z" fill="#616161"/>
<path d="M1278.94 323.962H1145L1145.05 323.667L1159.19 235.895H1220.48L1278.94 323.962ZM1145.59 323.454H1277.99L1220.2 236.403H1159.62L1145.59 323.454H1145.59Z" fill="#DDDDDD"/>
<path d="M1220.35 88.402H1159.41V236.149H1220.35V88.402Z" fill="#DDDDDD"/>
<path d="M1220.6 236.403H1159.16V88.1479H1220.6V236.403ZM1159.66 235.895H1220.1V88.6559H1159.66V235.895Z" fill="#DDDDDD"/>
<path d="M1220.35 88.402H1159.41V236.149H1220.35V88.402Z" fill="#DDDDDD"/>
<path d="M1220.6 236.403H1159.16V88.1479H1220.6V236.403ZM1159.66 235.895H1220.1V88.6559H1159.66V235.895Z" fill="#DDDDDD"/>
</svg>
